<svg width="102" height="60" viewBox="0 0 102 60" fill="none" xmlns="http://www.w3.org/2000/svg">
<path d="M98.7973 11.5915C98.673 11.3895 98.5664 11.2231 98.5486 11.2231C98.5308 11.2231 98.2229 11.4727 97.8675 11.7697C97.5062 12.0727 97.1213 12.3936 97.0088 12.4827L96.8015 12.6371C97.2279 13.4511 97.4648 13.9442 97.601 14.2531C97.7372 14.5621 97.9919 15.2453 98.1636 15.7682C98.3354 16.291 98.5486 17.0396 98.6374 17.4317C98.7263 17.8238 98.8506 18.4892 98.9158 18.917C98.9987 19.4517 99.0401 20.1349 99.0638 21.1152C99.0875 22.0005 99.0698 22.8322 99.0283 23.3135C98.9928 23.7412 98.8921 24.5017 98.8092 25.0067C98.7263 25.5117 98.5664 26.29 98.4538 26.7296C98.3472 27.1693 98.1222 27.9179 97.9623 28.3932C97.8024 28.8685 97.5359 29.5755 97.37 29.9676C97.1983 30.3597 96.8725 31.0251 96.6416 31.4529C96.4106 31.8806 95.996 32.5698 95.7177 32.9976C95.4393 33.4254 94.9478 34.0908 94.6339 34.4829C94.32 34.875 93.8107 35.4632 93.5086 35.784C93.2007 36.1108 92.6736 36.6276 92.3301 36.9366C91.9866 37.2455 91.4121 37.7327 91.0449 38.0119L90.3816 38.5229C91.27 40.0201 91.5483 40.4538 91.5779 40.4538C91.6016 40.4538 91.8918 40.2399 92.2235 39.9785C92.561 39.7111 93.0467 39.3131 93.3073 39.0932C93.5679 38.8675 94.1956 38.2615 94.699 37.7386C95.2024 37.2218 95.8184 36.5445 96.0671 36.2355C96.3158 35.9266 96.7186 35.3919 96.9673 35.0473C97.2101 34.7027 97.6306 34.0611 97.8971 33.6214C98.1636 33.1818 98.6078 32.3619 98.8743 31.8093C99.1467 31.2568 99.5199 30.4013 99.7035 29.9082C99.893 29.421 100.159 28.6189 100.296 28.1258C100.438 27.6386 100.633 26.8366 100.728 26.3435C100.829 25.8563 100.947 25.1315 101 24.7393C101.054 24.3472 101.119 23.664 101.154 23.2243C101.184 22.7847 101.214 22.0064 101.214 21.5014C101.214 20.9964 101.184 20.2181 101.154 19.7785C101.119 19.3388 101.054 18.6674 101 18.2932C100.953 17.9189 100.846 17.2772 100.764 16.8673C100.681 16.4573 100.515 15.8038 100.402 15.4117C100.29 15.0196 100.047 14.3244 99.8693 13.867C99.6916 13.4095 99.4192 12.7976 99.277 12.5005C99.129 12.2034 98.9158 11.7994 98.7973 11.5915Z" fill="#4C58AE"/>
<path d="M81.3736 16.9623C81.3263 16.9445 81.0479 16.9207 80.7518 16.9089C80.4557 16.891 79.9819 16.9148 79.6858 16.9564C79.3896 16.998 78.9632 17.1049 78.7382 17.194C78.5131 17.2772 78.1637 17.4376 77.9683 17.5446C77.7728 17.6515 77.453 17.8594 77.2576 18.0139C77.0621 18.1624 76.8252 18.3585 76.7246 18.4536C76.6239 18.5486 76.4581 18.7269 76.3574 18.8457C76.2508 18.9645 76.1619 19.0774 76.1619 19.0952C76.1619 19.113 76.1146 19.1724 76.0613 19.2378C76.002 19.2972 75.8303 19.6002 75.6822 19.9032C75.5282 20.2122 75.3624 20.6102 75.3091 20.7885C75.2558 20.9667 75.2144 21.1212 75.2144 21.1271C75.2144 21.139 75.3683 21.1449 75.5579 21.1449H75.8954C76.0613 20.6162 76.1679 20.3429 76.233 20.1943C76.3041 20.0458 76.3811 19.9151 76.3988 19.8973C76.4225 19.8794 76.4817 19.7903 76.535 19.6893C76.5824 19.5883 76.7838 19.3507 76.9733 19.1546C77.1628 18.9586 77.4886 18.6734 77.7018 18.5249C77.915 18.3763 78.2585 18.1803 78.4717 18.0852C78.6849 17.9961 79.1113 17.8535 79.4193 17.7763C79.8101 17.6812 80.1477 17.6396 80.5267 17.6396C80.8288 17.6396 81.2552 17.6812 81.4802 17.7287C81.6994 17.7703 82.0251 17.8654 82.2028 17.9248C82.3805 17.9902 82.57 18.0614 82.6173 18.0793C82.6825 18.109 82.7358 18.0377 82.8187 17.806C82.9253 17.497 82.9253 17.4911 82.8187 17.4198C82.7595 17.3782 82.493 17.2772 82.2324 17.194C81.9718 17.1109 81.6935 17.0336 81.6105 17.0158C81.5276 16.998 81.421 16.9742 81.3736 16.9623Z" fill="#4C58AE"/>
<path d="M90.506 17.7169L90.3401 17.3426L90.1329 17.4852C90.0203 17.5624 89.7894 17.705 89.6176 17.8119C89.3097 17.9961 89.3097 17.9961 89.3985 18.1565C89.4459 18.2516 89.5465 18.513 89.6295 18.7387C89.7065 18.9645 89.8308 19.4339 89.9078 19.7785C90.0322 20.331 90.05 20.5567 90.05 21.6796C90.05 22.7847 90.0322 23.052 89.9137 23.6402C89.8367 24.0145 89.6709 24.6443 89.5406 25.0364C89.4103 25.4285 89.1794 26.0167 89.0195 26.3435C88.8596 26.6702 88.5694 27.1752 88.3798 27.4723C88.1844 27.7693 87.8942 28.1674 87.7284 28.3635C87.5685 28.5595 87.2368 28.9219 86.9999 29.1655C86.5735 29.5992 86.5676 29.6171 86.6387 29.7893C86.6801 29.8903 86.7689 30.1458 86.84 30.3716C86.9111 30.5914 86.9881 30.7637 87.0118 30.7578C87.0355 30.7459 87.2723 30.5379 87.5389 30.2943C87.8054 30.0508 88.2022 29.6349 88.4213 29.3735C88.6404 29.1121 88.9958 28.6368 89.2149 28.3159C89.4281 28.001 89.7657 27.4188 89.9611 27.0267C90.1566 26.6346 90.4349 25.9751 90.577 25.5533C90.7192 25.1374 90.9028 24.466 90.9857 24.0561C91.0686 23.6462 91.1693 23.0342 91.2107 22.6896C91.2522 22.3213 91.264 21.6915 91.2463 21.1449C91.2285 20.6399 91.1752 19.9923 91.1219 19.7012C91.0686 19.416 90.9502 18.9348 90.8495 18.6318C90.7547 18.3347 90.6007 17.9189 90.506 17.7169Z" fill="#4C58AE"/>
<path d="M81.0538 19.7963C80.888 19.725 80.5978 19.6477 80.4024 19.6299C80.1655 19.6121 79.9345 19.6299 79.7213 19.6893C79.5377 19.7428 79.3127 19.8319 79.2179 19.8913C79.1172 19.9567 78.9395 20.1052 78.8211 20.23C78.6967 20.3547 78.5309 20.6162 78.4421 20.8122C78.2999 21.133 78.2822 21.2281 78.3058 21.6737C78.3236 22.0599 78.3651 22.25 78.4717 22.4757C78.5546 22.6421 78.7263 22.8797 78.8566 23.0105C78.9928 23.1412 79.2416 23.3135 79.4252 23.3966C79.6917 23.5214 79.8397 23.5452 80.2543 23.5452C80.6748 23.5452 80.8051 23.5214 81.0834 23.3907C81.2789 23.2956 81.5217 23.1055 81.6935 22.9154C81.8593 22.7312 82.031 22.4579 82.0962 22.2678C82.1909 22.0183 82.2146 21.84 82.1969 21.4955C82.1791 21.1746 82.1317 20.9607 82.0192 20.7231C81.9303 20.5449 81.7468 20.2953 81.6046 20.1646C81.4625 20.0339 81.2137 19.8676 81.0538 19.7963Z" fill="#4C58AE"/>
<path d="M82.6174 0.974451C82.1554 0.909098 81.3204 0.86751 80.3965 0.855628C79.5792 0.843745 78.6612 0.855628 78.3533 0.885334C78.0453 0.915039 77.4945 0.986334 77.1392 1.03386C76.7838 1.08733 76.1264 1.20616 75.6882 1.30716C75.2499 1.40222 74.5274 1.58639 74.0891 1.72304C73.6509 1.85375 72.9165 2.10922 72.4605 2.29339C72.0044 2.47163 71.2582 2.81028 70.8022 3.03604C70.3462 3.26775 69.6947 3.63016 69.3512 3.84404C69.0077 4.05793 68.451 4.43222 68.1075 4.67581C67.764 4.9194 67.2073 5.34716 66.8638 5.6264C66.5203 5.91158 65.8866 6.48787 65.4484 6.91564C65.016 7.33746 64.3764 8.0207 64.0388 8.43064C63.6953 8.84058 63.1623 9.55946 62.8484 10.0348C62.5286 10.5101 62.1081 11.2052 61.9068 11.5795C61.7054 11.9538 61.3738 12.637 61.1724 13.0945C60.977 13.5519 60.6808 14.3124 60.5209 14.7877C60.3551 15.263 60.1478 15.9462 60.0531 16.3027C59.9583 16.6592 59.8102 17.2889 59.7273 17.6989C59.6444 18.1088 59.526 18.8396 59.4608 19.3327C59.4016 19.8199 59.3305 20.4853 59.3009 20.8061L59.2535 21.3884C60.9296 21.3824 61.4152 21.3646 61.4152 21.3349C61.4152 21.3111 61.4389 20.9487 61.4744 20.5209C61.51 20.0932 61.587 19.3862 61.6521 18.9465C61.7173 18.5069 61.8594 17.7702 61.9719 17.3127C62.0844 16.8552 62.2976 16.1364 62.4457 15.7086C62.5878 15.2808 62.807 14.7105 62.9254 14.4312C63.0439 14.152 63.3163 13.5935 63.5236 13.1836C63.7368 12.7736 64.1158 12.132 64.3586 11.7577C64.6074 11.3834 65.0101 10.8071 65.2589 10.4803C65.5017 10.1536 66.2123 9.37529 66.8342 8.7574C67.5627 8.02664 68.22 7.42658 68.6998 7.06417C69.1084 6.75522 69.7717 6.29181 70.1804 6.0304C70.589 5.77493 71.3767 5.34122 71.9275 5.07387C72.4782 4.80057 73.2541 4.46193 73.645 4.3134C74.0358 4.17081 74.6873 3.95098 75.0959 3.8381C75.5046 3.71928 76.1561 3.55887 76.5469 3.47569C76.9378 3.39845 77.6011 3.27963 78.0275 3.22616C78.6138 3.14298 79.1705 3.11922 80.3965 3.11922C81.7882 3.11922 82.1021 3.13704 82.7951 3.25587C83.2333 3.3331 83.9558 3.48163 84.3941 3.58857C84.8324 3.69551 85.5371 3.89751 85.9635 4.03416C86.3899 4.17081 87.0592 4.42034 87.4619 4.59263C87.8587 4.75899 88.1963 4.88375 88.2081 4.86593C88.2259 4.8481 88.3976 4.39657 88.599 3.85593C88.7944 3.31528 88.9425 2.83998 88.9247 2.79839C88.907 2.76275 88.7707 2.67363 88.6168 2.60234C88.4569 2.53698 87.989 2.35281 87.5626 2.19239C87.1362 2.03198 86.4077 1.79433 85.9339 1.65769C85.4601 1.52698 84.6902 1.33686 84.2164 1.2418C83.7426 1.14675 83.026 1.02792 82.6174 0.974451Z" fill="#FF9333"/>
<path d="M26.2184 56.0255C26.1474 55.9958 25.8868 55.9601 25.644 55.9423C25.4011 55.9245 25.1169 55.9245 25.0221 55.9363C24.9274 55.9542 24.7082 56.0076 24.5483 56.0611C24.3825 56.1146 24.1693 56.2096 24.0745 56.2809C23.9798 56.3463 23.8258 56.4829 23.731 56.5839C23.6422 56.679 23.5237 56.8572 23.4764 56.9701C23.4231 57.083 23.3638 57.3088 23.3461 57.4751C23.3283 57.6534 23.3579 57.9029 23.4112 58.0989C23.4823 58.3425 23.577 58.497 23.7903 58.7109C23.9679 58.8891 24.193 59.0436 24.4003 59.1208C24.6608 59.2218 24.8563 59.2456 25.3478 59.2456C25.7387 59.2456 26.0408 59.2099 26.1533 59.1624C26.3191 59.0911 26.3369 59.0614 26.2895 58.9426C26.2421 58.8238 26.2125 58.8178 25.9519 58.8535C25.7979 58.8832 25.49 58.8951 25.259 58.8891C24.957 58.8772 24.7615 58.8356 24.5306 58.7228C24.341 58.6336 24.1752 58.497 24.1041 58.3782C24.039 58.2772 23.9561 58.0395 23.9205 57.8613C23.8732 57.6236 23.8672 57.4692 23.9146 57.2969C23.9502 57.1662 24.039 56.9642 24.116 56.8513C24.2048 56.7206 24.3825 56.578 24.6075 56.4651C24.9214 56.3047 25.0162 56.2869 25.4367 56.2988C25.6973 56.3047 25.9875 56.3225 26.0822 56.3285C26.2125 56.3403 26.2599 56.3166 26.3013 56.2096C26.3428 56.1027 26.331 56.0671 26.2184 56.0255Z" fill="#FF9333"/>
<path d="M33.4201 56.0076C33.3253 55.9839 33.0825 55.9542 32.8693 55.9363C32.6561 55.9185 32.3363 55.9363 32.1586 55.9661C31.9809 55.9958 31.7263 56.073 31.596 56.1324C31.4657 56.1859 31.2525 56.3285 31.1281 56.4413C30.9978 56.5542 30.832 56.7741 30.755 56.9404C30.6602 57.1543 30.6188 57.3444 30.6188 57.6236C30.6188 57.8851 30.6602 58.0989 30.7431 58.2772C30.8083 58.4257 30.9327 58.6218 31.0215 58.7109C31.1103 58.8059 31.3058 58.9485 31.4657 59.0258C31.6197 59.103 31.9217 59.1981 32.1408 59.2337C32.431 59.2753 32.6798 59.2753 33.0173 59.2278C33.2779 59.1921 33.5148 59.1446 33.5385 59.1208C33.5681 59.0971 33.574 59.0198 33.5563 58.9426C33.5207 58.8238 33.4971 58.8178 33.2365 58.8535C33.0825 58.8832 32.7982 58.901 32.6028 58.8951C32.4073 58.8891 32.1408 58.8535 32.0105 58.8119C31.8802 58.7644 31.6848 58.6455 31.5723 58.5505C31.4597 58.4495 31.3235 58.2593 31.2643 58.1286C31.2051 57.9979 31.1518 57.7543 31.1518 57.5939C31.1518 57.386 31.1992 57.2018 31.3117 56.9761C31.4301 56.7503 31.5486 56.6136 31.7144 56.5186C31.8447 56.4413 32.1112 56.3463 32.3067 56.3106C32.5732 56.2631 32.7686 56.2631 33.0766 56.3106C33.4082 56.3641 33.4971 56.3641 33.5326 56.3047C33.5563 56.2631 33.58 56.1859 33.58 56.1383C33.58 56.0908 33.5089 56.0314 33.4201 56.0076Z" fill="#FF9333"/>
<path d="M2.13206 55.9601H0V57.5939V59.2278H2.19129V58.8713H0.473791V57.6831H2.01361V57.3266H0.473791V56.3166H2.13206V55.9601Z" fill="#FF9333"/>
<path d="M5.6855 55.9601H3.49421V56.4473C3.49421 56.7206 3.4646 57.1662 3.43499 57.4454C3.38761 57.8316 3.32246 58.0574 3.15071 58.396C2.96712 58.7762 2.90789 58.8416 2.77168 58.8535L2.60585 58.8713V60.0001H3.02042L3.07964 59.2278H5.56705V60.0001H5.952C6.02307 59.3763 6.04084 59.1268 6.04084 59.0317C6.04084 58.8951 6.01715 58.8713 5.86317 58.8713H5.6855V55.9601Z" fill="#FF9333"/>
<path d="M7.17202 55.9601H6.6923V57.5939V59.2278H7.22532C8.47494 57.5939 8.89543 57.0236 8.9665 56.8988C9.03165 56.7741 9.10864 56.679 9.13825 56.679C9.16194 56.679 9.17971 57.2493 9.17971 57.9504V59.2278H9.6535V55.9601H9.1501C7.99523 57.4573 7.56882 58.0336 7.45629 58.2059C7.34377 58.3782 7.23124 58.5148 7.19571 58.5148C7.16017 58.5148 7.14241 58.0633 7.15425 57.2434L7.17202 55.9601Z" fill="#FF9333"/>
<path d="M11.0749 55.9601H10.5419V57.5939V59.2278H11.0749V57.6831H12.97V59.2278H13.5031V55.9601H12.97V57.3266H11.0749V55.9601Z" fill="#FF9333"/>
<path d="M16.6538 57.4929L16.0201 55.9601C15.5226 55.9601 15.3982 55.9898 15.3805 56.0373C15.3627 56.0789 15.0666 56.7919 14.7231 57.6236C14.3736 58.4613 14.0953 59.1624 14.0953 59.1862C14.0953 59.2099 14.2078 59.2278 14.35 59.2278H14.5987L14.9837 58.2178L16.4287 58.2475L16.8078 59.1981C17.3526 59.2396 17.3763 59.2337 17.3348 59.1327C17.3112 59.0733 17.0032 58.3366 16.6538 57.4929Z" fill="#FF9333"/>
<path d="M20.2546 56.0195C20.0473 55.9779 19.7216 55.966 19.3958 55.972C19.0701 55.972 18.6911 56.0017 18.5549 56.0314C18.389 56.0611 18.2173 56.1621 18.0633 56.3047C17.8442 56.5126 17.8323 56.5483 17.8323 56.8513C17.8323 57.1483 17.8501 57.2018 18.0337 57.3741C18.1462 57.4811 18.2765 57.5702 18.318 57.5702C18.3535 57.5702 18.4305 57.5939 18.4779 57.6177C18.5489 57.6593 18.5252 57.7068 18.3476 57.8732C18.2054 58.0039 18.0337 58.2712 17.856 58.6515L17.5895 59.2278H18.1817C18.5016 58.4257 18.6555 58.1346 18.7266 58.0633C18.8036 57.992 18.9339 57.9029 19.0286 57.8672C19.1175 57.8316 19.307 57.8019 19.4551 57.8019H19.7216V59.2278H20.2546V56.0195Z" fill="#FF9333"/>
<path d="M27.4858 55.9601H27.0061V57.5939V59.2278H27.5391C28.6703 57.7365 29.0908 57.1602 29.2033 56.9879C29.3158 56.8156 29.4224 56.679 29.4521 56.679C29.4757 56.679 29.4935 57.2493 29.4935 57.9504V59.2278H29.9673V55.9601L29.4106 55.9898C27.9537 57.9266 27.5154 58.497 27.4917 58.5029C27.4681 58.5089 27.4562 57.9445 27.4681 57.2375L27.4858 55.9601Z" fill="#FF9333"/>
<path d="M36.9557 55.9601H33.9945V56.1383V56.3166H35.179V59.2278H35.712V56.3166H36.9557V55.9601Z" fill="#FF9333"/>
<path d="M39.5024 55.9601H37.3703V57.5939V59.2278H39.5616V58.8713H37.9033V57.6831H39.4431L39.4135 57.3563L37.9033 57.3266V56.3166H39.5024V55.9601Z" fill="#FF9333"/>
<path d="M48.4629 55.9898L47.8589 55.9542L47.7286 56.2393C47.6634 56.3998 47.3791 57.0771 47.1008 57.7425C46.8224 58.4138 46.5737 59.0258 46.5441 59.0971C46.4908 59.2278 46.5026 59.2278 46.7632 59.2159L47.0356 59.1981L47.4147 58.2475L48.8301 58.2118L49.2565 59.1981C49.683 59.2218 49.8073 59.2218 49.8073 59.2159C49.8073 59.2099 49.5053 58.4792 49.1381 57.5939L48.4629 55.9898Z" fill="#FF9333"/>
<path d="M54.5215 55.9601L53.9885 55.9661L53.3667 57.4276C53.0232 58.2356 52.7271 58.9426 52.6974 59.002C52.6619 59.0971 52.6856 59.1149 52.8751 59.1149H53.1002C54.0181 57.083 54.3024 56.4948 54.3261 56.4948C54.3557 56.4948 54.5097 56.9345 54.6755 57.4632C54.8414 57.992 55.0309 58.598 55.0901 58.8C55.1908 59.1386 55.2145 59.1743 55.3625 59.1743C55.5224 59.1743 55.5402 59.1446 55.9903 57.8494C56.245 57.1246 56.47 56.5067 56.4937 56.4829C56.5174 56.4592 56.7898 57.0414 57.0978 57.7781L57.6604 59.1149C58.0335 59.1149 58.0987 59.0852 58.0809 59.0376C58.0691 58.9961 57.7966 58.3247 57.4827 57.5405C57.1629 56.7562 56.8905 56.0789 56.8668 56.0314C56.8431 55.9799 56.7444 55.9601 56.5707 55.972L56.3101 55.9958C55.6468 57.9266 55.4336 58.4911 55.404 58.4911C55.3803 58.4911 55.173 57.9207 54.942 57.2256L54.5215 55.9601Z" fill="#FF9333"/>
<path d="M61.0006 56.0908C60.8585 56.0492 60.5802 56.0017 60.3847 55.9898C60.1893 55.9779 59.8932 56.0017 59.7333 56.0433C59.5674 56.0789 59.3187 56.1859 59.1825 56.275C59.0463 56.3641 58.8567 56.5423 58.7679 56.6612C58.6791 56.7859 58.5665 57.0176 58.5251 57.184C58.4718 57.3622 58.454 57.6177 58.4718 57.8375C58.4896 58.0336 58.5547 58.3009 58.6198 58.4316C58.685 58.5624 58.839 58.7525 58.9574 58.8594C59.0759 58.9664 59.2476 59.0971 59.3483 59.1446C59.4431 59.1921 59.68 59.2575 59.8635 59.2812C60.0531 59.3109 60.3729 59.3109 60.5742 59.2812C60.7815 59.2575 61.048 59.1802 61.1665 59.1208C61.2908 59.0614 61.4804 58.9188 61.5929 58.8119C61.6995 58.699 61.8475 58.5029 61.9127 58.3722C62.0075 58.1881 62.0371 58.0217 62.0371 57.6296C62.043 57.2256 62.0193 57.0771 61.9186 56.8869C61.8475 56.7562 61.6758 56.5423 61.5277 56.4116C61.3797 56.2809 61.1428 56.1383 61.0006 56.0908Z" fill="#FF9333"/>
<path d="M75.5697 56.1502C75.3624 56.0611 75.1019 56.0017 74.8354 55.9898C74.6044 55.9779 74.3201 55.9958 74.1957 56.0255C74.0773 56.0611 73.8937 56.1265 73.7989 56.174C73.6983 56.2215 73.5265 56.3463 73.4081 56.4532C73.2896 56.5602 73.1356 56.7562 73.0646 56.8869C72.9639 57.0771 72.9402 57.2315 72.9402 57.6593C72.9402 58.0455 72.9698 58.2475 73.0409 58.4019C73.1001 58.5148 73.2304 58.699 73.337 58.8119C73.4436 58.9188 73.6331 59.0614 73.7516 59.1208C73.8759 59.1802 74.1306 59.2575 74.3142 59.2872C74.5155 59.3169 74.8117 59.3169 75.0249 59.2872C75.2322 59.2575 75.4987 59.1802 75.6171 59.1208C75.7415 59.0614 75.931 58.9188 76.0435 58.8119C76.1561 58.699 76.2923 58.5029 76.3515 58.3722C76.4107 58.2415 76.4759 57.9861 76.4995 57.8078C76.5232 57.5761 76.5114 57.3801 76.4403 57.1365C76.3752 56.9166 76.2686 56.7087 76.1146 56.5423C75.9843 56.3998 75.7533 56.2334 75.5697 56.1502Z" fill="#FF9333"/>
<path d="M42.6768 57.3325L42.2504 56.0552C41.7173 56.0195 41.6996 56.0255 41.6167 56.2156C41.5693 56.3225 41.2613 57.0295 40.9356 57.79L40.3374 59.1743L40.8171 59.1446C41.6936 57.1662 41.972 56.5602 41.9957 56.5305C42.0253 56.4948 42.2385 57.0771 42.4813 57.8375C42.884 59.103 42.9314 59.204 43.0617 59.2218C43.1604 59.2337 43.2256 59.204 43.2572 59.1327C43.2868 59.0733 43.4941 58.4911 43.725 57.8375C43.9501 57.184 44.1574 56.6077 44.187 56.5602C44.2284 56.4889 44.2462 56.5008 44.2995 56.6196C44.335 56.7028 44.5838 57.3028 44.8562 57.9563L45.3537 59.1446C45.6853 59.1684 45.786 59.1505 45.786 59.1268C45.786 59.103 45.5136 58.396 45.176 57.5583L44.5719 56.0255C44.1337 56.0255 44.0093 56.0314 44.0093 56.0373C44.0093 56.0492 43.8198 56.6018 43.5888 57.2731C43.3578 57.9445 43.1565 58.5148 43.1328 58.5505C43.115 58.5802 42.9077 58.0336 42.6768 57.3325Z" fill="#FF9333"/>
<path d="M63.2571 56.0255H62.7241V57.6593V59.2931L63.2275 59.2634L63.2571 57.7484H65.1522V59.2931L65.6556 59.2634L65.6793 56.0255H65.1522V57.3919H63.2571V56.0255Z" fill="#FF9333"/>
<path d="M67.0533 56.0255H66.5736V57.6593V59.2931H67.1066C68.2378 57.7959 68.6701 57.2018 68.8004 57.0117L69.0314 56.6612L69.061 59.2931H69.5348V56.0255L69.0314 56.0195C67.9713 57.3801 67.539 57.9563 67.385 58.1762C67.231 58.396 67.0889 58.5802 67.0593 58.5802C67.0356 58.5802 67.0237 58.0039 67.0356 57.3028L67.0533 56.0255Z" fill="#FF9333"/>
<path d="M72.9106 56.0255H69.9494V56.2037V56.3819L71.1635 56.4116L71.1931 59.2931H71.6669L71.6965 56.4116L72.9106 56.3819V56.0255Z" fill="#FF9333"/>
<path d="M79.0995 56.1799C78.8981 56.073 78.7382 56.0552 78.0927 56.0433C77.6663 56.0314 77.2813 56.0433 77.2339 56.0611C77.1629 56.0908 77.151 56.3403 77.1629 57.6949L77.1747 59.2931L77.6781 59.2634L77.7077 57.9861C78.6375 57.9563 78.8034 57.9207 79.0343 57.8078C79.1942 57.7246 79.3778 57.5821 79.4489 57.487C79.5259 57.386 79.5792 57.2078 79.591 57.0117C79.6088 56.7681 79.5851 56.6671 79.4726 56.5067C79.3956 56.3938 79.2298 56.2453 79.0995 56.1799Z" fill="#FF9333"/>
<path d="M80.7933 56.0255H80.3136V57.6593V59.2931H80.8466C81.9778 57.7959 82.4101 57.2018 82.5404 57.0117L82.7714 56.6612L82.801 59.2931H83.2748V56.0255H82.7417C81.7053 57.3801 81.2789 57.9563 81.1249 58.1762C80.971 58.396 80.8288 58.5802 80.7992 58.5802C80.7755 58.5802 80.7637 58.0039 80.7755 57.3028L80.7933 56.0255Z" fill="#FF9333"/>
<path d="M84.6369 56.0255H84.1631V57.6593V59.2931H84.6369L84.6665 57.7781L86.5913 57.7484V59.2931L87.0947 59.2634L87.1184 56.0255H86.5913V57.3919L84.6665 57.3622L84.6369 56.0255Z" fill="#FF9333"/>
<path d="M90.0855 56.0255H87.9535L87.9653 57.6415L87.9831 59.2634L88.4865 59.2931V56.3819H90.0855V56.0255Z" fill="#FF9333"/>
<path d="M92.3538 57.5583L91.7201 56.0255C91.2404 56.0255 91.0923 56.0492 91.0746 56.073C91.0627 56.0968 90.7725 56.8038 90.4349 57.6415C90.0974 58.4792 89.8131 59.1921 89.8072 59.2278C89.7953 59.2694 89.8842 59.2872 90.0441 59.2812L90.2928 59.2634C90.5712 58.5742 90.6718 58.3425 90.6955 58.3009C90.7251 58.2475 90.9383 58.2237 91.4062 58.2237H92.0754L92.5019 59.2634C93.0526 59.305 93.0763 59.2991 93.0349 59.1981C93.0053 59.1386 92.7032 58.396 92.3538 57.5583Z" fill="#FF9333"/>
<path d="M63.1327 25.0659H58.7442L58.6376 25.3214C58.5784 25.458 56.0851 31.2804 53.0942 38.2553C50.1094 45.2303 47.6516 50.9754 47.6397 51.017C47.622 51.0705 48.0069 51.0883 49.4342 51.0883L51.2583 51.0824C59.0818 33.6153 61.3797 28.5415 61.4152 28.5415C61.4507 28.5415 62.0015 30.1575 62.6293 32.1359C63.263 34.1143 64.9094 39.2594 66.2893 43.5727L68.7945 51.4151H71.3885C77.5478 33.7816 79.3541 28.6069 79.3778 28.5415C79.4193 28.4346 79.4311 28.4346 79.5022 28.5118C79.5436 28.5593 81.7053 33.6628 84.3112 39.8476L89.0432 51.0942L92.6854 51.0883C87.459 38.04 85.1175 32.1884 84.11 29.6706L84.098 29.6406L82.2857 25.0956L77.8795 25.0659C77.822 25.2677 76.2367 29.8716 74.2869 35.5343L74.1069 36.0571C72.0755 41.9567 70.3995 46.7928 70.3876 46.8106C70.3699 46.8285 70.3343 46.8106 70.3047 46.7809C70.2751 46.7512 68.7412 42.1349 66.8934 36.5324C65.0456 30.9299 63.4407 26.0581 63.3341 25.7076L63.1327 25.0659Z" fill="white"/>
<path d="M40.8645 25.5056C40.4144 25.4521 39.4491 25.4046 38.4363 25.3927C37.5065 25.3808 36.4938 25.3927 36.1858 25.4224C35.8719 25.4521 35.2619 25.5293 34.8237 25.6006C34.3795 25.6719 33.6214 25.8264 33.1358 25.9512C32.6442 26.0819 31.9928 26.272 31.6848 26.3849C31.3709 26.5037 30.8675 26.7057 30.5595 26.8423C30.2457 26.979 29.6771 27.2701 29.2981 27.4899C28.9131 27.7038 28.309 28.0959 27.9655 28.3573C27.6161 28.6128 27.0416 29.1119 26.6863 29.4565C26.331 29.801 25.869 30.2942 25.6617 30.5615C25.4485 30.8229 25.1287 31.2626 24.9451 31.5418C24.7615 31.8151 24.4417 32.3795 24.2404 32.7895C24.0331 33.1935 23.7429 33.9064 23.5948 34.3639C23.4408 34.8213 23.2572 35.4986 23.1802 35.8789C23.1033 36.2532 23.0085 36.8116 22.967 37.1265C22.9315 37.4355 22.896 38.1959 22.896 38.8198C22.896 39.4376 22.9315 40.2159 22.973 40.5427C23.0085 40.8695 23.1092 41.4636 23.1862 41.8616C23.2691 42.2597 23.4408 42.9192 23.5711 43.3172C23.7014 43.7153 23.9798 44.3926 24.187 44.8204C24.3943 45.2422 24.7201 45.8185 24.9037 46.0977C25.0873 46.371 25.4189 46.8106 25.638 47.078C25.8572 47.3394 26.3013 47.7969 26.6212 48.0999C26.9469 48.4029 27.4503 48.8247 27.7464 49.0327C28.0366 49.2465 28.5578 49.5733 28.9013 49.7694C29.2388 49.9654 29.7659 50.2328 30.068 50.3635C30.37 50.5001 30.9682 50.7259 31.4005 50.8744C31.8329 51.017 32.508 51.2071 32.8989 51.2903C33.2898 51.3794 33.9531 51.5042 34.3795 51.5695C34.948 51.6587 35.5699 51.7002 36.7781 51.724C37.7671 51.7418 38.7621 51.724 39.3247 51.6824C39.8281 51.6468 40.6158 51.5636 41.0718 51.4982C41.5278 51.4269 42.203 51.3081 42.582 51.2309C42.9551 51.1537 43.6007 50.9814 44.0152 50.8507C44.4298 50.7199 44.7851 50.5833 44.8029 50.5536C44.8147 50.5179 44.6667 49.9357 44.4653 49.2584C44.2699 48.5811 44.0981 48.0048 44.0804 47.9811C44.0685 47.9573 43.879 48.0048 43.6599 48.088C43.4407 48.1712 43.0203 48.3019 42.7301 48.3791C42.4339 48.4623 41.9305 48.5811 41.6048 48.6405C41.2791 48.7059 40.6217 48.8069 40.1538 48.8604C39.5912 48.9317 38.845 48.9673 38.0218 48.9673C37.317 48.9673 36.4642 48.9317 36.1266 48.896C35.7831 48.8544 35.2501 48.7653 34.9421 48.7059C34.6282 48.6465 34.1367 48.5217 33.8465 48.4385C33.5504 48.3554 33.0469 48.1831 32.7212 48.0524C32.3955 47.9276 31.8862 47.684 31.596 47.5177C31.2998 47.3454 30.8497 47.0602 30.5892 46.876C30.3345 46.6918 29.8785 46.2997 29.5823 46.0026C29.2862 45.7056 28.8657 45.2125 28.6466 44.9035C28.4275 44.5946 28.1017 44.048 27.9241 43.6915C27.7464 43.3291 27.5095 42.7528 27.397 42.4142C27.2845 42.0696 27.1364 41.4933 27.0653 41.1368C26.9943 40.7744 26.9054 40.0793 26.8699 39.5921C26.8166 38.9029 26.8166 38.4811 26.8758 37.7503C26.9113 37.2275 27.012 36.473 27.089 36.0868C27.1719 35.6947 27.3318 35.0887 27.4503 34.75C27.5687 34.4055 27.7997 33.8589 27.9596 33.5321C28.1254 33.2053 28.4156 32.7063 28.6052 32.433C28.7947 32.1537 29.1855 31.6725 29.4698 31.3695C29.76 31.0606 30.2753 30.5972 30.6188 30.3417C30.9563 30.0862 31.5723 29.706 31.9809 29.4921C32.3836 29.2842 33.0233 29.0049 33.4023 28.8742C33.7754 28.7495 34.3854 28.5712 34.7644 28.488C35.1376 28.4049 35.7772 28.292 36.1858 28.2445C36.63 28.191 37.4058 28.1494 38.1521 28.1494C38.8272 28.1494 39.6386 28.1791 39.9584 28.2147C40.2782 28.2504 40.7757 28.3157 41.0718 28.3633C41.362 28.4167 41.9068 28.5296 42.2859 28.6247C42.659 28.7197 43.192 28.8802 43.4704 28.9812C43.7428 29.0822 43.9797 29.1594 43.9856 29.1475C43.9915 29.1416 44.1988 28.5534 44.4416 27.8405C44.6904 27.1275 44.8799 26.5274 44.868 26.5037C44.8562 26.4799 44.6489 26.3849 44.4061 26.2957C44.1692 26.2126 43.7309 26.07 43.4407 25.9868C43.1446 25.9096 42.6116 25.7848 42.2563 25.7194C41.895 25.6541 41.2672 25.5531 40.8645 25.5056Z" fill="white"/>
<path d="M19.4847 25.4818H0V38.6712V51.8607H20.3138V49.0089C19.1412 48.9911 15.4041 48.9732 11.2525 48.9554L3.70149 48.9198C3.72518 43.2994 3.74295 41.1784 3.76072 40.5843L3.79033 39.503H18.7148V36.8889H3.79033C3.74295 35.2966 3.72518 33.3955 3.71334 31.6309L3.70149 28.4227C14.8534 28.3633 18.4009 28.3455 18.7858 28.3395L19.4847 28.3336V25.4818Z" fill="white"/>
<path d="M82.1733 11.7577C81.6936 11.6685 81.125 11.621 80.4262 11.6091C79.7274 11.5913 79.2003 11.6091 78.7975 11.6685C78.4718 11.7161 77.9388 11.823 77.6131 11.9062C77.2873 11.9894 76.7543 12.1676 76.4286 12.2983C76.1029 12.429 75.5817 12.6785 75.2737 12.8568C74.9658 13.0291 74.4742 13.344 74.1781 13.5519C73.8879 13.7539 73.343 14.2233 72.9758 14.5797C72.6027 14.9362 72.1171 15.4709 71.892 15.768C71.6729 16.065 71.3116 16.5997 71.0984 16.9562C70.8852 17.3127 70.5832 17.9306 70.4233 18.3227C70.2575 18.7148 70.0502 19.3446 69.9554 19.7188C69.8607 20.0931 69.76 20.5922 69.7363 20.818L69.6948 21.2338C70.3226 21.1626 70.6246 21.1447 70.7727 21.1447H71.0392C71.1577 20.3843 71.2465 19.9624 71.3057 19.7188C71.3649 19.4753 71.4893 19.0713 71.5781 18.8277C71.6611 18.5841 71.8683 18.1147 72.0282 17.788C72.1882 17.4612 72.4902 16.9562 72.6856 16.6591C72.887 16.368 73.3312 15.8452 73.6747 15.5006C74.0182 15.156 74.5393 14.7104 74.8295 14.5144C75.1257 14.3124 75.6409 14.0094 75.9844 13.8371C76.3279 13.6648 76.8728 13.439 77.1985 13.3321C77.5242 13.2251 78.0987 13.0707 78.4718 12.9934C79.07 12.8746 79.3187 12.8568 80.4854 12.8568C81.7054 12.8627 81.8831 12.8746 82.5701 13.0231C82.9906 13.1123 83.5828 13.2608 83.8908 13.3618C84.1988 13.4628 84.4712 13.546 84.489 13.5578C84.5067 13.5638 84.6133 13.3558 84.7259 13.0944C84.8384 12.833 84.9272 12.5894 84.9272 12.5597C84.9272 12.53 84.6844 12.4171 84.3824 12.3102C84.0803 12.2092 83.6184 12.0666 83.3578 12.0013C83.0972 11.9359 82.5642 11.823 82.1733 11.7577Z" fill="#FF9333"/>
<path d="M85.5431 20.8655C85.5668 20.5268 85.5609 20.2595 85.5372 20.2595C85.5135 20.2654 85.4188 20.2833 85.3299 20.2892C85.17 20.313 85.1641 20.3248 85.1641 20.6576C85.1641 20.8417 85.1227 21.2754 85.0694 21.62C85.0161 21.9646 84.8976 22.4815 84.7969 22.7786C84.7022 23.0756 84.5186 23.5271 84.3942 23.7886L84.1632 24.2639L84.4238 24.7094C84.6489 24.3173 84.7969 24.0024 84.9035 23.7589C85.0042 23.5153 85.1463 23.1231 85.2115 22.8974C85.2826 22.6716 85.3773 22.2557 85.4247 21.9765C85.4721 21.6973 85.5254 21.1982 85.5431 20.8655Z" fill="#FF9333"/>
<path d="M71.5604 25.565L71.5071 25.4402L70.8852 25.6244C70.5417 25.7254 70.2515 25.8264 70.2515 25.8561C70.2456 25.8799 70.293 26.0462 70.3581 26.2244C70.4233 26.4027 70.5891 26.771 70.7194 27.0443C70.8556 27.3117 71.0984 27.7335 71.2583 27.9771C71.4242 28.2207 71.6551 28.5415 71.7677 28.69C71.8861 28.8386 72.1408 29.1416 72.3421 29.3673C72.5376 29.5931 72.8929 29.9436 73.1298 30.1516C73.3608 30.3595 73.5858 30.5199 73.6154 30.5021C73.6451 30.4843 73.7813 30.2466 73.9116 29.9674L74.1485 29.4624C73.4437 28.7019 73.0824 28.2682 72.887 28.0068C72.6916 27.7454 72.425 27.3414 72.2948 27.1156C72.1645 26.8899 71.9572 26.474 71.8328 26.1947C71.7144 25.9155 71.59 25.6303 71.5604 25.565Z" fill="#FF9333"/>
<path d="M19.5911 56.2869C19.5141 56.2691 19.3602 56.2632 19.2476 56.2632C19.1351 56.2632 18.9456 56.2929 18.8331 56.3285C18.7205 56.3582 18.5784 56.4295 18.5133 56.483C18.454 56.5424 18.383 56.6434 18.3534 56.7207C18.3178 56.8098 18.3297 56.9167 18.3889 57.0593C18.4422 57.1841 18.5547 57.3088 18.6672 57.3623C18.7738 57.4158 19.0581 57.4752 19.295 57.4989L19.7214 57.5346C19.7214 56.3404 19.7155 56.3167 19.5911 56.2869Z" fill="#120E22"/>
<path d="M5.15234 56.3167H3.96786V56.7207C3.96786 56.9405 3.93825 57.3207 3.90271 57.5643C3.8731 57.8079 3.77834 58.1703 3.69543 58.3664C3.61251 58.5624 3.53552 58.7585 3.51776 58.8001C3.49999 58.8535 3.68358 58.8714 4.3232 58.8714H5.15234V56.3167Z" fill="#120E22"/>
<path d="M60.7458 56.4058C60.6274 56.3582 60.3964 56.3167 60.2424 56.3167C60.0885 56.3167 59.8693 56.3582 59.7568 56.4058C59.6384 56.4592 59.4844 56.5602 59.4074 56.6315C59.3304 56.7028 59.2119 56.8692 59.1468 56.9999C59.052 57.1722 59.0165 57.3445 59.0165 57.6534C59.0165 57.9861 59.0461 58.1168 59.1646 58.3307C59.2416 58.4792 59.4015 58.6575 59.5199 58.7347C59.6324 58.812 59.8338 58.9011 59.9641 58.9367C60.0944 58.9724 60.3076 58.9842 60.4379 58.9605C60.5682 58.9427 60.7932 58.8535 60.9413 58.7644C61.1249 58.6456 61.2492 58.509 61.3558 58.301C61.4684 58.0752 61.498 57.9208 61.498 57.6237C61.4921 57.3504 61.4565 57.1603 61.3677 56.9999C61.3025 56.8692 61.1841 56.7028 61.1071 56.6315C61.0301 56.5543 60.8702 56.4592 60.7458 56.4058Z" fill="#120E22"/>
<path d="M75.4156 56.5305C75.2379 56.4058 75.0958 56.3582 74.7997 56.3345C74.4976 56.3167 74.3614 56.3345 74.1778 56.4236C74.0475 56.483 73.8699 56.6137 73.781 56.7088C73.6922 56.8038 73.5797 56.9999 73.5264 57.1484C73.4731 57.291 73.4316 57.5346 73.4375 57.6831C73.4375 57.8317 73.4967 58.0812 73.5737 58.2475C73.6507 58.408 73.7988 58.6159 73.9113 58.705C74.0238 58.7941 74.2607 58.8951 74.4443 58.9367C74.6871 58.9842 74.8293 58.9842 75.0188 58.9367C75.1609 58.9011 75.3682 58.7822 75.4867 58.6753C75.6051 58.5684 75.7532 58.3782 75.8242 58.2475C75.9012 58.0871 75.9427 57.8851 75.9486 57.6534C75.9486 57.3801 75.9131 57.2197 75.8006 56.9999C75.7117 56.8276 75.5518 56.6315 75.4156 56.5305Z" fill="#120E22"/>
<path d="M78.5604 56.382C78.4301 56.3464 78.2169 56.3167 78.0866 56.3167C77.9563 56.3226 77.8083 56.3345 77.7609 56.3523C77.6957 56.3761 77.678 56.5068 77.6898 56.9999L77.7016 57.6237C77.9504 57.6712 78.1458 57.6653 78.2939 57.6475C78.436 57.6237 78.6315 57.5702 78.7203 57.5227C78.8091 57.4811 78.9217 57.3801 78.975 57.3088C79.0223 57.2375 79.0638 57.0771 79.0638 56.9524C79.0638 56.8038 79.0164 56.685 78.9276 56.5899C78.8565 56.5127 78.6907 56.4177 78.5604 56.382Z" fill="#120E22"/>
<path d="M15.9015 56.8632C15.8245 56.6256 15.7297 56.4355 15.6942 56.4355C15.6587 56.4355 15.635 56.4652 15.635 56.5068C15.629 56.5484 15.5165 56.8692 15.3803 57.2197L15.1316 57.8554L16.2864 57.8614C16.1028 57.4217 15.9844 57.1009 15.9015 56.8632Z" fill="#120E22"/>
<path d="M48.4569 57.1484C48.3207 56.786 48.1785 56.4949 48.143 56.4949C48.1134 56.4949 48.066 56.5365 48.0482 56.5959C48.0245 56.6553 47.912 56.9524 47.7876 57.2672L47.5685 57.8317C48.4095 57.8495 48.6642 57.8435 48.6819 57.8317C48.6938 57.8138 48.599 57.5049 48.4569 57.1484Z" fill="#120E22"/>
<path d="M91.6726 57.1484C91.5423 56.786 91.4179 56.4949 91.3942 56.4949C91.3705 56.4949 91.2343 56.786 91.0981 57.1484C90.9619 57.5049 90.8494 57.8257 90.8494 57.8614C90.8494 57.8911 91.0626 57.9208 91.3824 57.9208C91.6963 57.9208 91.9154 57.8911 91.9154 57.8614C91.9154 57.8257 91.8088 57.5049 91.6726 57.1484Z" fill="#120E22"/>
<path d="M82.4104 1.14673C82.0195 1.0992 81.1134 1.04573 80.3968 1.03385C79.6802 1.02197 78.8273 1.03385 78.5016 1.06356C78.1759 1.09326 77.6132 1.15862 77.2579 1.21209C76.9026 1.26556 76.2866 1.3725 75.8958 1.45567C75.5049 1.54479 74.812 1.71709 74.3559 1.84779C73.8999 1.9785 73.4853 2.1092 73.438 2.13297C73.3906 2.16267 73.1774 2.23991 72.9642 2.31714L72.9642 2.31715C72.751 2.38844 72.3009 2.56668 71.9574 2.71521C71.6139 2.86373 71.1105 3.09544 70.8321 3.23803C70.5538 3.38062 70.157 3.5945 69.9437 3.71332C69.7305 3.83809 69.3337 4.08168 69.0554 4.25991C68.777 4.43815 68.2085 4.84215 67.7821 5.16297C67.3557 5.4838 66.8404 5.89374 66.6272 6.08386C66.414 6.26803 65.8751 6.78492 65.419 7.2305C64.9689 7.68203 64.3412 8.36527 64.0273 8.75739C63.7134 9.14951 63.2574 9.76739 63.0205 10.1239C62.7777 10.4803 62.4164 11.0745 62.2209 11.4309C62.0196 11.7874 61.7057 12.4053 61.5221 12.7974C61.3385 13.1895 61.1016 13.7361 61.0009 14.0153C60.8943 14.2946 60.7167 14.7996 60.6041 15.1442C60.4916 15.4888 60.3317 16.0235 60.2488 16.3324C60.1718 16.6413 60.0948 16.9384 60.083 16.9859C60.0711 17.0334 60.0238 17.2472 59.9764 17.461L59.9764 17.4612C59.9231 17.6751 59.8283 18.1801 59.7632 18.59C59.698 19 59.621 19.5882 59.5855 19.8971C59.5499 20.206 59.5203 20.6219 59.5085 20.818L59.4907 21.1745L61.2378 21.2042C61.2911 20.3962 61.3326 19.9387 61.3622 19.6595C61.3903 19.3948 61.429 19.0714 61.4481 18.9119L61.451 18.8871C61.4688 18.7386 61.5517 18.3108 61.6287 17.9365C61.7116 17.5622 61.8538 16.9562 61.9544 16.5998C62.0551 16.2433 62.2032 15.7561 62.2861 15.5303C62.369 15.3046 62.4756 15.0135 62.5171 14.8887C62.5644 14.7699 62.7362 14.3659 62.902 14.0035C63.0678 13.6351 63.3521 13.0647 63.5298 12.738C63.7134 12.4112 64.0806 11.8112 64.353 11.4012C64.6195 10.9913 64.8919 10.6051 64.9512 10.5397C65.0104 10.4744 65.2058 10.2308 65.3894 10.005C65.573 9.77333 65.9817 9.30992 66.3074 8.96533C66.6272 8.62668 67.0122 8.23456 67.1602 8.10386C67.3024 7.97315 67.48 7.81868 67.5452 7.75333C67.6103 7.69392 67.9716 7.39686 68.3447 7.0998C68.7178 6.7968 69.2923 6.38092 69.618 6.16703C69.9437 5.95315 70.3702 5.67986 70.5656 5.56697C70.761 5.44815 71.1993 5.2105 71.5428 5.03227C71.8863 4.85403 72.3897 4.61638 72.668 4.49756C72.9464 4.37874 73.438 4.18268 73.7637 4.06385C74.0894 3.94503 74.6639 3.75491 75.037 3.64797C75.4101 3.54103 76.0497 3.38062 76.4584 3.29744C76.867 3.21426 77.5303 3.10138 77.939 3.04197C78.5134 2.95879 79.0583 2.93503 80.3968 2.94097C81.9011 2.94097 82.209 2.95879 82.8842 3.07168C83.3106 3.14891 84.039 3.29744 84.5128 3.41627C84.9866 3.52915 85.7684 3.75491 86.2599 3.92721C86.7456 4.09356 87.3615 4.31932 87.6221 4.42627C87.8827 4.53321 88.1018 4.62233 88.1077 4.61044C88.1136 4.6045 88.1847 4.41438 88.2736 4.18268L88.2781 4.16988C88.3614 3.93718 88.4941 3.56641 88.5697 3.33309C88.6526 3.10138 88.7118 2.89938 88.7059 2.8875C88.694 2.88156 88.5578 2.81026 88.392 2.73303C88.2321 2.65579 87.6813 2.44785 87.1779 2.26962C86.6745 2.09138 85.8631 1.84185 85.3716 1.71709C84.8859 1.58638 84.1753 1.42597 83.8021 1.36062C83.429 1.28932 82.8013 1.19426 82.4104 1.14673Z" fill="#FF9333"/>
</svg>
