<svg width="13" height="13" viewBox="0 0 13 13" fill="none" xmlns="http://www.w3.org/2000/svg">
<path fill-rule="evenodd" clip-rule="evenodd" d="M8.66551 9.765C7.74494 10.4448 10.6075 7.52456 9.79292 8.63461C9.81331 8.63298 9.77553 8.69453 9.64887 8.84881C9.64887 8.84881 11.8243 11.0044 12.8922 12.1014C13.2629 12.5014 12.5941 13.2996 12.1396 12.8829C11.1726 11.9469 8.88431 9.62075 8.88078 9.61696L8.66551 9.765Z" fill="#6D7095"/>
<path d="M5.46796 10.8554C6.86771 10.8419 8.25332 10.2635 9.24973 9.28117C10.4331 8.11445 11.0425 6.38836 10.8299 4.74036C10.4657 1.91643 8.13862 0 5.43317 0C3.37757 0 1.37987 1.28277 0.503604 3.1428C-0.167188 4.56683 -0.168547 6.28614 0.503604 7.71262C1.37362 9.55963 3.33871 10.8356 5.39811 10.8554C5.42148 10.8554 5.44485 10.8554 5.46796 10.8554ZM5.40381 9.95062C3.31343 9.93055 1.36302 8.3178 0.97517 6.25008C0.701743 4.79242 1.21788 3.21492 2.29311 2.17971C3.54826 0.970686 5.52123 0.565872 7.16179 1.25105C8.62949 1.8641 9.72809 3.28759 9.93057 4.85587C10.104 6.20019 9.62045 7.60904 8.67026 8.57946C7.83666 9.43084 6.66766 9.93896 5.46225 9.95062C5.44268 9.95062 5.42338 9.95062 5.40381 9.95062Z" fill="#6D7095"/>
</svg>
