<svg width="14" height="14" viewBox="0 0 14 14" fill="none" xmlns="http://www.w3.org/2000/svg">
<path d="M0.5 2C0.5 1.17157 1.17157 0.5 2 0.5H10C11.933 0.5 13.5 2.067 13.5 4V12C13.5 12.8284 12.8284 13.5 12 13.5H2C1.17157 13.5 0.5 12.8284 0.5 12V2Z" stroke="#6D7095"/>
<path d="M4.1842 0.5H9.81578V4.1579C9.81578 4.43404 9.59193 4.65789 9.31578 4.65789H4.6842C4.40806 4.65789 4.1842 4.43404 4.1842 4.15789V0.5Z" stroke="#6D7095"/>
<path d="M10.5526 13.5L3.44735 13.5L3.44735 8.36842C3.44735 8.09228 3.67121 7.86842 3.94735 7.86842L10.0526 7.86842C10.3288 7.86842 10.5526 8.09228 10.5526 8.36842L10.5526 13.5Z" stroke="#6D7095"/>
<rect x="7.73683" y="1.84211" width="0.736842" height="1.47368" rx="0.368421" stroke="#6D7095" stroke-width="0.736842"/>
<rect x="0.184211" y="-0.184211" width="0.368421" height="0.368421" transform="matrix(1 0 0 -1 11.7895 12.1579)" stroke="#6D7095" stroke-width="0.368421"/>
<rect x="0.184211" y="-0.184211" width="0.368421" height="0.368421" transform="matrix(1 0 0 -1 1.47363 12.1579)" stroke="#6D7095" stroke-width="0.368421"/>
</svg>
