<svg width="25" height="25" viewBox="0 0 25 25" fill="none" xmlns="http://www.w3.org/2000/svg">
<path d="M22.3269 12.2081V9.15302C22.3269 8.93803 22.3269 8.73435 22.3269 8.542C22.9458 8.24851 23.4899 7.83929 23.9237 7.34102C24.3575 6.84275 24.6713 6.26664 24.8445 5.65028C25.0178 5.03392 25.0466 4.39116 24.9292 3.76395C24.8117 3.13673 24.5506 2.53916 24.1629 2.01021C23.7752 1.48127 23.2695 1.03285 22.679 0.694214C22.0885 0.355576 21.4263 0.134329 20.7357 0.0449126C20.0451 -0.0445041 19.3416 -8.19444e-05 18.6711 0.175281C18.0006 0.350643 17.3782 0.653005 16.8444 1.06264C15.332 0.372215 13.6511 0.0459 11.9616 0.114672C10.272 0.183444 8.62971 0.645019 7.19065 1.45558C5.7516 2.26614 4.56353 3.39877 3.73923 4.74596C2.91494 6.09315 2.48178 7.61018 2.48088 9.15302V12.2081L0.694733 14.6522C0.236093 15.2655 -0.00625795 15.9919 0.000122835 16.7342C0.0138072 17.735 0.459498 18.6904 1.2405 19.3933C2.00417 20.0735 3.02613 20.4585 4.09336 20.4682H6.32604C6.61073 21.7472 7.37134 22.897 8.47902 23.7229C9.58669 24.5488 10.9733 25 12.4039 25C13.8345 25 15.2211 24.5488 16.3288 23.7229C17.4364 22.897 18.197 21.7472 18.4817 20.4682H20.7144C21.8 20.4682 22.8411 20.0748 23.6088 19.3746C24.3764 18.6743 24.8076 17.7245 24.8076 16.7342C24.8099 15.9959 24.5678 15.2742 24.113 14.6635L22.3269 12.2081ZM22.3269 4.62693C22.3269 5.07452 22.1814 5.51205 21.9088 5.88421C21.6362 6.25637 21.2488 6.54643 20.7955 6.71771C20.3422 6.88899 19.8434 6.93381 19.3622 6.84649C18.881 6.75917 18.4389 6.54364 18.092 6.22714C17.745 5.91065 17.5088 5.50742 17.4131 5.06843C17.3173 4.62944 17.3665 4.17442 17.5542 3.7609C17.742 3.34738 18.06 2.99394 18.4679 2.74528C18.8759 2.49661 19.3555 2.36389 19.8461 2.36389C20.5041 2.36389 21.1351 2.60231 21.6003 3.02672C22.0655 3.45112 22.3269 4.02673 22.3269 4.62693ZM12.4039 22.7313C11.634 22.7317 10.883 22.5142 10.2543 22.1089C9.62565 21.7036 9.15023 21.1304 8.89362 20.4682H15.9142C15.6575 21.1304 15.1821 21.7036 14.5534 22.1089C13.9247 22.5142 13.1737 22.7317 12.4039 22.7313ZM20.7144 18.2052H4.09336C3.67131 18.2069 3.26562 18.0564 2.96462 17.7865C2.81178 17.649 2.69033 17.4852 2.6073 17.3045C2.52427 17.1239 2.4813 16.9301 2.48088 16.7342C2.48368 16.4513 2.57867 16.1756 2.75376 15.9422L4.75076 13.2039C4.89357 13.0102 4.96723 12.7809 4.96163 12.5476V9.15302C4.96163 7.35243 5.74572 5.62559 7.14142 4.35238C8.53711 3.07917 10.4301 2.36389 12.4039 2.36389C13.3879 2.36865 14.3613 2.54932 15.2692 2.8957C15.0147 3.44333 14.8839 4.03214 14.8846 4.62693C14.8846 5.82732 15.4074 6.97855 16.3378 7.82736C17.2683 8.67616 18.5303 9.15302 19.8461 9.15302V12.5476C19.848 12.7694 19.9214 12.9858 20.057 13.1699L22.054 15.9422C22.2384 16.18 22.3341 16.4656 22.3269 16.7568C22.3204 17.143 22.1476 17.5114 21.8459 17.7824C21.5442 18.0534 21.1378 18.2052 20.7144 18.2052Z" fill="white"/>
</svg>
