<svg width="15" height="15" viewBox="0 0 15 15" fill="none" xmlns="http://www.w3.org/2000/svg">
<path fill-rule="evenodd" clip-rule="evenodd" d="M9.99873 11.2673C8.93656 12.0516 12.2394 8.68219 11.2995 9.96301C11.3231 9.96114 11.2795 10.0322 11.1333 10.2102C11.1333 10.2102 13.6434 12.6974 14.8755 13.9632C15.3033 14.4246 14.5315 15.3457 14.0072 14.8648C12.8914 13.7848 10.2512 11.1009 10.2471 11.0965L9.99873 11.2673Z" fill="#CCCCCC"/>
<path d="M6.30899 12.5254C7.92403 12.5098 9.52277 11.8425 10.6724 10.709C12.0379 9.36278 12.7409 7.37116 12.4957 5.46963C12.0755 2.21125 9.39043 0 6.26885 0C3.89708 0 1.59211 1.48011 0.581064 3.62629C-0.192904 5.2694 -0.194472 7.25321 0.581064 8.89913C1.5849 11.0303 3.85224 12.5026 6.22839 12.5254C6.25536 12.5254 6.28233 12.5254 6.30899 12.5254ZM6.23498 11.4814C3.82307 11.4583 1.57267 9.59743 1.12516 7.2116C0.809679 5.5297 1.40521 3.70951 2.64581 2.51503C4.09402 1.12002 6.37045 0.652926 8.26335 1.44351C9.9568 2.15087 11.2244 3.79336 11.458 5.6029C11.6581 7.15404 11.1002 8.77963 10.0038 9.89933C9.04202 10.8817 7.69322 11.468 6.3024 11.4814C6.27982 11.4814 6.25756 11.4814 6.23498 11.4814Z" fill="#CCCCCC"/>
</svg>
