<svg width="18" height="25" viewBox="0 0 18 25" fill="none" xmlns="http://www.w3.org/2000/svg">
<path fill-rule="evenodd" clip-rule="evenodd" d="M0.6 0.641026C0.0228 1.25769 0 1.7093 0 12.5C0 23.2907 0.0228 23.7423 0.6 24.359C1.1691 24.967 1.5999 25 9 25C16.4001 25 16.8309 24.967 17.4 24.359C17.9694 23.7506 18 23.2907 18 15.299V6.88013L14.7702 3.44006L11.5401 0H6.3702C1.5999 0 1.1535 0.0496795 0.6 0.641026ZM13.9095 7.6266C12.6408 7.67853 11.4225 7.64712 11.2014 7.55641C10.9083 7.43622 10.8 6.63365 10.8 4.58397V1.77628L13.5081 4.65417L16.2159 7.53205L13.9095 7.6266ZM14.25 13.4615V14.2628L9.0684 14.3506C4.6521 14.4253 3.8607 14.366 3.7113 13.95C3.6147 13.6814 3.6147 13.2417 3.7113 12.9731C3.8607 12.5571 4.6521 12.4978 9.0684 12.5724L14.25 12.6603V13.4615ZM12.45 17.3077V18.109L8.1687 18.1981C4.5537 18.2731 3.8601 18.2106 3.7116 17.7974C3.615 17.5279 3.615 17.0875 3.7116 16.8179C3.8601 16.4048 4.5537 16.3423 8.1687 16.4173L12.45 16.5064V17.3077Z" fill="white"/>
</svg>
