<svg width="25" height="21" viewBox="0 0 25 21" fill="none" xmlns="http://www.w3.org/2000/svg">
<path fill-rule="evenodd" clip-rule="evenodd" d="M2.22901 0.636364C1.72385 1.17282 1.62977 1.69686 1.62977 3.97727V6.68182H12.416H23.2023V4.93182C23.2023 3.60595 23.057 3.0275 22.6031 2.54545C22.0428 1.95045 21.6044 1.90909 15.8616 1.90909C12.4834 1.90909 9.71946 1.79295 9.71946 1.65105C9.71946 1.50882 9.44441 1.07927 9.10854 0.6965C8.56324 0.0747728 8.19321 0 5.66293 0C3.22763 0 2.74375 0.0897273 2.22901 0.636364ZM0.0999181 9.33323C-0.158653 9.93586 0.0450879 11.0002 1.18034 14.981C2.08069 18.1386 2.79558 20.0846 3.18629 20.4432C3.73429 20.9456 4.63524 21 12.416 21C20.1968 21 21.0978 20.9456 21.6458 20.4432C22.0353 20.0859 22.7448 18.1609 23.6265 15.0688C24.3819 12.4193 25 10.1029 25 9.92123C25 9.73954 24.7882 9.366 24.5293 9.09077C24.117 8.65327 22.5842 8.59091 12.2384 8.59091H0.418412L0.0999181 9.33323Z" fill="white"/>
</svg>
